<?xml version="1.0" encoding="UTF-8" standalone="no"?>
<svg
   xmlns:dc="http://purl.org/dc/elements/1.1/"
   xmlns:cc="http://creativecommons.org/ns#"
   xmlns:rdf="http://www.w3.org/1999/02/22-rdf-syntax-ns#"
   xmlns:svg="http://www.w3.org/2000/svg"
   xmlns="http://www.w3.org/2000/svg"
   viewBox="0 0 1683.7867 384"
   height="384"
   width="1683.7867"
   xml:space="preserve"
   id="svg2"
   version="1.1"><metadata
     id="metadata8"><rdf:RDF><cc:Work
         rdf:about=""><dc:format>image/svg+xml</dc:format><dc:type
           rdf:resource="http://purl.org/dc/dcmitype/StillImage" /></cc:Work></rdf:RDF></metadata><defs
     id="defs6"><clipPath
       id="clipPath18"
       clipPathUnits="userSpaceOnUse"><path
         id="path16"
         d="M 0,288 H 1262.838 V 0 H 0 Z" /></clipPath></defs><g
     transform="matrix(1.3333333,0,0,-1.3333333,0,384)"
     id="g10"><g
       id="g12"><g
         clip-path="url(#clipPath18)"
         id="g14"><g
           transform="translate(1257.0938,148.8066)"
           id="g20"><path
             id="path22"
             style="fill:#554436;fill-opacity:1;fill-rule:nonzero;stroke:none"
             d="m 0,0 c -2.134,-3.12 -4.104,-5.582 -9.849,-5.582 -6.071,0 -11.487,5.907 -11.487,23.961 V 53.502 H 1.312 v 9.027 h -22.648 v 26.913 h -18.546 c 0,-11.65 -9.025,-26.913 -30.361,-26.913 v -9.027 h 16.739 V 16.573 c 0,-24.615 17.889,-33.642 34.958,-33.642 12.803,0 19.858,6.073 24.29,14.771 z m -104.554,58.917 c -6.071,0 -9.354,-11.326 -8.697,-23.961 h 18.544 c 0.329,12.472 -0.82,23.961 -9.847,23.961 m 38.076,-30.035 h -46.119 c 2.134,-14.111 9.193,-27.735 22.487,-27.735 9.189,0 15.59,6.236 18.544,13.624 l 4.596,-1.314 c -2.134,-11.326 -11.49,-29.705 -36.27,-29.542 -19.531,0.163 -41.687,13.787 -41.687,40.045 0,24.615 15.264,40.208 39.062,40.208 23.795,0 38.73,-15.593 39.387,-35.286 m -121.456,30.035 c -6.071,0 -9.354,-11.326 -8.697,-23.961 h 18.543 c 0.33,12.472 -0.819,23.961 -9.846,23.961 m 38.077,-30.035 h -46.12 c 2.134,-14.111 9.192,-27.735 22.487,-27.735 9.189,0 15.59,6.236 18.544,13.624 l 4.596,-1.314 c -2.133,-11.326 -11.49,-29.705 -36.27,-29.542 -19.53,0.163 -41.687,13.787 -41.687,40.045 0,24.615 15.264,40.208 39.061,40.208 23.796,0 38.731,-15.593 39.389,-35.286 m -87.325,31.181 c -9.846,6.896 -24.453,2.136 -31.181,-12.472 v 14.938 l -42.344,-6.566 v -3.938 c 8.208,0 11.818,-1.314 11.818,-7.879 V -1.151 c 0,-6.237 -3.118,-9.352 -11.818,-9.519 v -3.938 h 54.159 v 3.938 c -8.205,0 -11.815,2.953 -11.815,9.519 v 39.06 c 0,17.395 23.468,12.143 16.74,-3.775 17.396,-7.058 30.361,14.771 14.441,25.929 M -313.834,0 c -2.134,-3.12 -4.104,-5.582 -9.849,-5.582 -6.071,0 -11.488,5.907 -11.488,23.961 v 35.123 h 22.649 v 9.027 h -22.649 v 26.913 h -18.543 c 0,-11.65 -9.027,-26.913 -30.364,-26.913 v -9.027 h 16.74 V 16.573 c 0,-24.615 17.889,-33.642 34.958,-33.642 12.8,0 19.858,6.073 24.29,14.771 z m -92.738,54.486 c -6.565,3.284 -19.201,10.012 -24.126,12.635 -10.338,5.582 -10.995,10.504 -10.995,15.101 0,7.22 6.728,12.31 17.396,12.31 22.321,0 27.735,-14.938 29.377,-27.74 h 7.221 l -0.327,35.945 c -16.906,-6.566 -23.633,0 -38.405,0 -23.798,0 -40.372,-15.43 -40.372,-32.003 0,-12.64 5.087,-21.174 21.991,-30.526 6.237,-3.446 23.141,-13.294 28.228,-16.248 11.49,-6.728 12.475,-10.996 12.475,-17.231 0,-6.404 -2.791,-15.756 -18.219,-15.593 -19.036,0.162 -34.136,19.86 -37.417,37.584 h -7.223 l 0.329,-44.15 c 16.903,6.566 28.556,-1.639 43.327,-1.639 26.258,0 42.999,17.724 42.999,36.924 0,15.756 -8.041,25.437 -26.259,34.631 m -102.43,-55.637 v 38.238 c 0,14.771 -7.223,27.903 -33.317,27.903 -11.653,0 -20.35,-5.744 -25.11,-11.818 v 9.357 l -42.343,-6.566 v -3.938 c 8.207,0 11.817,-2.958 11.817,-9.519 V -1.151 c 0,-6.237 -3.118,-9.352 -11.817,-9.519 v -3.938 h 53.174 v 3.938 c -7.385,0.167 -10.831,3.445 -10.831,9.356 v 35.119 c 0,10.503 6.237,19.697 14.442,19.697 8.042,0 13.459,-6.074 13.459,-19.697 V -1.314 c 0,-5.744 -3.118,-9.027 -10.833,-9.356 v -3.938 h 53.174 v 3.938 c -8.205,0 -11.815,2.953 -11.815,9.519 m -112.595,0 v 63.68 l -42.341,-6.566 v -3.938 c 8.205,0 11.815,-2.958 11.815,-9.519 V -1.151 c 0,-6.237 -3.118,-9.352 -11.815,-9.519 v -3.938 h 54.159 v 3.938 c -8.207,0 -11.818,2.953 -11.818,9.519 m -15.427,67.618 c 9.848,0 15.427,7.712 15.427,14.933 0,7.221 -5.579,14.933 -15.427,14.933 -9.847,0 -15.426,-7.712 -15.426,-14.933 0,-7.221 5.579,-14.933 15.426,-14.933 m -62.705,-41.852 c -10.667,0 -20.678,-4.267 -20.678,-18.379 0,-6.403 3.775,-10.833 9.354,-10.833 7.059,0 10.504,5.581 11.324,11.818 z m 35.123,-35.285 v -3.938 c -2.463,-0.655 -6.566,-1.969 -15.428,-1.969 -9.684,0 -17.397,5.744 -19.695,10.503 -5.087,-6.236 -12.308,-10.503 -21.827,-10.503 -18.381,0 -29.377,7.875 -29.377,20.845 0,17.724 28.557,25.436 51.204,25.436 v 9.844 c 0,13.787 -4.265,17.237 -12.308,17.237 -7.55,0 -11.325,-3.283 -11.325,-7.388 0,-3.283 2.463,-7.55 6.565,-8.367 0,-4.105 -4.432,-11.655 -14.935,-11.655 -8.37,0 -13.95,5.906 -13.95,15.1 0,12.31 17.563,19.693 32.003,19.693 24.125,0 41.195,-8.043 41.195,-29.542 V 4.268 c 0,-6.566 0,-13.462 7.878,-14.938 m -139.691,110.945 h 47.923 v -3.942 c -9.52,-0.162 -12.803,-3.278 -12.803,-9.681 V -0.984 c 0,-6.566 3.776,-9.519 12.803,-9.686 v -3.938 h -58.427 v 3.938 c 9.52,0.167 12.802,3.282 12.802,9.686 V 81.07 l -39.061,-98.139 h -8.205 L -891.771,83.206 V -0.33 c 0,-6.403 3.446,-8.864 13.784,-10.34 v -3.938 h -36.925 v 3.938 c 10.667,1.476 13.95,4.104 13.95,10.503 V 86.16 c 0,6.728 -3.611,9.356 -13.95,10.173 v 3.942 h 54.814 l 28.885,-67.455 z" /></g><g
           transform="translate(1260.71,63.0229)"
           id="g24"><path
             id="path26"
             style="fill:#6bb93c;fill-opacity:1;fill-rule:nonzero;stroke:none"
             d="M 0,0 H 2.128 L 0,-24.25 h -54.147 v 2.223 c 5.371,0.092 7.22,1.848 7.22,5.46 v 49.423 c 0,3.705 -2.128,5.368 -7.22,5.46 V 40.54 H 0 L 2.128,19.994 H 0 L -12.218,35.913 H -28.414 V 11.848 h 1.85 c 6.109,0 13.051,3.7 15.087,9.253 h 1.112 V -1.482 h -1.112 c -2.128,5.738 -9.164,9.258 -15.087,9.258 h -1.85 v -27.4 h 16.196 z m -93.193,-0.092 -2.128,-24.158 h -56.924 v 2.223 c 5.091,0.092 7.221,1.755 7.221,5.46 v 49.423 c 0,3.613 -1.853,5.368 -7.221,5.46 v 2.224 h 32.951 v -2.224 c -5.09,-0.092 -7.221,-1.755 -7.221,-5.46 v -52.48 h 18.976 l 12.218,19.532 z m -96.247,0 -2.128,-24.158 h -56.924 v 2.223 c 5.09,0.092 7.221,1.755 7.221,5.46 v 49.423 c 0,3.613 -1.853,5.368 -7.221,5.46 v 2.224 h 32.951 v -2.224 c -5.09,-0.092 -7.221,-1.755 -7.221,-5.46 v -52.48 h 18.976 l 12.218,19.532 z m -133.728,-21.935 c 5.368,0.092 7.221,1.848 7.221,5.46 v 49.423 c 0,3.705 -2.129,5.368 -7.221,5.46 v 2.224 h 32.95 v -2.224 c -5.46,-0.092 -7.218,-1.755 -7.218,-5.46 v -49.423 c 0,-3.705 2.128,-5.368 7.218,-5.46 v -2.223 h -32.95 z m -106.154,60.343 v 2.224 h 34.523 v -2.224 c -4.72,-0.185 -6.202,-4.07 -4.812,-7.586 l 13.144,-33.509 12.308,33.509 c 1.482,4.164 -0.924,7.036 -6.016,7.586 v 2.224 h 20.825 v -2.224 c -4.997,-1.477 -8.793,-5.089 -10.55,-9.994 l -19.529,-53.962 h -7.406 l -22.029,54.332 c -2.128,5.276 -5.831,8.703 -10.458,9.624 m -35.802,-43.128 c 0,-10.829 -9.441,-20.828 -24.25,-20.828 -8.33,0 -14.902,4.627 -24.437,0.926 l -0.184,24.9 h 4.073 c 1.85,-9.996 10.365,-21.106 21.104,-21.199 8.7,-0.092 10.272,5.187 10.272,8.795 0,3.515 -0.556,5.924 -7.035,9.717 -2.869,1.668 -12.401,7.221 -15.919,9.166 -9.533,5.275 -12.403,10.087 -12.403,17.215 0,9.347 9.348,18.049 22.768,18.049 8.33,0 12.126,-3.705 21.659,0 l 0.186,-20.272 h -4.073 c -0.924,7.22 -3.979,15.645 -16.568,15.645 -6.015,0 -9.811,-2.871 -9.811,-6.942 0,-2.594 0.371,-5.368 6.202,-8.518 2.776,-1.482 9.904,-5.275 13.606,-7.128 10.274,-5.182 14.81,-10.643 14.81,-19.526 m -83.205,-17.215 v -2.223 h -36.005 v 2.223 c 3.795,-0.185 4.904,3.33 2.776,7.308 l -11.384,21.106 -7.313,-8.332 v -14.622 c 0,-3.705 2.13,-5.368 7.221,-5.46 v -2.223 h -32.951 v 2.223 c 5.368,0.092 7.22,1.848 7.22,5.46 v 49.423 c 0,3.705 -2.131,5.368 -7.22,5.46 v 2.224 h 32.951 v -2.224 c -5.368,-0.092 -7.221,-1.847 -7.221,-5.46 V 6.017 l 20.733,23.787 c 3.795,4.349 0.278,8.512 -3.147,8.512 v 2.224 h 24.806 v -2.224 c -4.905,-0.829 -11.754,-5.089 -14.716,-8.512 l -7.128,-8.24 20.547,-37.76 c 2.038,-3.798 5.739,-5.831 10.831,-5.831 m -155.765,57.94 h -0.648 V 11.384 h 0.648 c 8.979,0 14.532,4.534 14.532,12.959 0,8.42 -5.553,11.57 -14.532,11.57 m 3.703,4.627 c 15.273,0 30.545,-4.72 30.545,-16.197 0,-9.721 -11.572,-13.885 -23.88,-14.626 10.643,0 17.586,-2.682 20.27,-13.144 2.592,-10.18 4.905,-18.6 10.644,-18.6 v -2.223 c -1.573,-0.834 -5.554,-2.316 -11.107,-2.316 -5.368,0 -12.403,1.852 -14.624,9.814 -0.927,3.33 -1.575,6.202 -3.425,13.325 -2.406,9.351 -7.313,11.111 -11.199,11.111 h -1.575 v -24.251 c 0,-3.705 2.131,-5.368 7.221,-5.46 v -2.223 h -32.952 v 2.223 c 5.369,0.092 7.221,1.848 7.221,5.46 v 49.423 c 0,3.705 -2.13,5.368 -7.221,5.46 v 2.224 z m -103.834,-62.567 c 5.369,0.092 7.221,1.848 7.221,5.46 v 49.423 c 0,3.705 -2.128,5.368 -7.221,5.46 v 2.224 h 32.952 v -2.224 c -5.461,-0.092 -7.218,-1.755 -7.218,-5.46 v -49.423 c 0,-3.705 2.128,-5.368 7.218,-5.46 v -2.223 h -32.952 z m -36.646,0 v -2.223 h -36.005 v 2.223 c 3.795,-0.185 4.904,3.33 2.776,7.308 l -11.384,21.106 -7.313,-8.332 v -14.622 c 0,-3.705 2.13,-5.368 7.22,-5.46 v -2.223 h -32.951 v 2.223 c 5.368,0.092 7.221,1.848 7.221,5.46 v 49.423 c 0,3.705 -2.13,5.368 -7.221,5.46 v 2.224 h 32.951 v -2.224 c -5.368,-0.092 -7.22,-1.847 -7.22,-5.46 V 6.017 l 20.733,23.787 c 3.795,4.349 0.277,8.512 -3.147,8.512 v 2.224 h 24.806 v -2.224 c -4.905,-0.829 -11.755,-5.089 -14.717,-8.512 l -7.128,-8.24 20.548,-37.76 c 2.038,-3.798 5.741,-5.831 10.831,-5.831" /></g><g
           transform="translate(77.9019,143.6978)"
           id="g28"><path
             id="path30"
             style="fill:#365597;fill-opacity:1;fill-rule:nonzero;stroke:none"
             d="m 0,0 h 17.388 v 49.013 h 7.321 V 66.4 H 0 Z" /></g><g
           transform="translate(192.71,192.7104)"
           id="g32"><path
             id="path34"
             style="fill:#fc5229;fill-opacity:1;fill-rule:nonzero;stroke:none"
             d="M 0,0 V -9.89 H 17.388 V 17.388 H -50.975 L -50.975,0 Z" /></g><g
           transform="translate(95.29,95.2896)"
           id="g36"><path
             id="path38"
             style="fill:#8a0048;fill-opacity:1;fill-rule:nonzero;stroke:none"
             d="M 0,0 V 9.885 H -17.388 V -17.388 H 50.975 L 50.975,0 Z" /></g><g
           transform="translate(210.0981,144.2979)"
           id="g40"><path
             id="path42"
             style="fill:#2e7d40;fill-opacity:1;fill-rule:nonzero;stroke:none"
             d="m 0,0 h -17.388 v -49.008 h -7.321 V -66.396 H 0 Z" /></g><g
           transform="translate(67.7378,172.1958)"
           id="g44"><path
             id="path46"
             style="fill:#5ebbe9;fill-opacity:1;fill-rule:nonzero;stroke:none"
             d="M 0,0 H -50.508 V 98.266 H 46.02 V 0 H 38.767 V -17.539 H 63.25 V 115.804 H -67.738 V -17.539 H 0 Z" /></g><g
           transform="translate(157.0127,288)"
           id="g48"><path
             id="path50"
             style="fill:#edaa00;fill-opacity:1;fill-rule:nonzero;stroke:none"
             d="m 0,0 v -66.367 h 17.229 v 48.828 h 96.529 v -98.265 H 17.229 v 9.975 H 0 v -27.514 H 130.987 V 0 Z" /></g><g
           transform="translate(113.7578,17.5386)"
           id="g52"><path
             id="path54"
             style="fill:#d2147a;fill-opacity:1;fill-rule:nonzero;stroke:none"
             d="M 0,0 H -96.528 V 98.261 H 0 v -9.97 H 17.229 V 115.8 H -113.758 V -17.539 H 17.229 V 48.828 H 0 Z" /></g><g
           transform="translate(220.2622,115.7998)"
           id="g56"><path
             id="path58"
             style="fill:#6bb93c;fill-opacity:1;fill-rule:nonzero;stroke:none"
             d="M 0,0 H 50.508 V -98.261 H -46.02 V 0 h 7.253 V 17.539 H -63.25 V -115.8 H 67.738 V 17.539 H 0 Z" /></g></g></g></g></svg>