<?xml version="1.0" encoding="UTF-8" standalone="no"?>
<svg
   xmlns:dc="http://purl.org/dc/elements/1.1/"
   xmlns:cc="http://creativecommons.org/ns#"
   xmlns:rdf="http://www.w3.org/1999/02/22-rdf-syntax-ns#"
   xmlns:svg="http://www.w3.org/2000/svg"
   xmlns="http://www.w3.org/2000/svg"
   viewBox="0 0 655.24268 384"
   height="384"
   width="655.24268"
   xml:space="preserve"
   id="svg2"
   version="1.1"><metadata
     id="metadata8"><rdf:RDF><cc:Work
         rdf:about=""><dc:format>image/svg+xml</dc:format><dc:type
           rdf:resource="http://purl.org/dc/dcmitype/StillImage" /></cc:Work></rdf:RDF></metadata><defs
     id="defs6"><clipPath
       id="clipPath18"
       clipPathUnits="userSpaceOnUse"><path
         id="path16"
         d="M 0,288 H 491.432 V 0 H 0 Z" /></clipPath><clipPath
       id="clipPath26"
       clipPathUnits="userSpaceOnUse"><path
         id="path24"
         d="M 3.05176e-5,36.5618 H 491.432 V 1.52588e-5 H 3.05176e-5 Z" /></clipPath><clipPath
       id="clipPath50"
       clipPathUnits="userSpaceOnUse"><path
         id="path48"
         d="m 168.851,288 h 153.73 V 134.27 h -153.73 z" /></clipPath></defs><g
     transform="matrix(1.3333333,0,0,-1.3333333,0,384)"
     id="g10"><g
       id="g12"><g
         clip-path="url(#clipPath18)"
         id="g14"><g
           id="g20"><g
             id="g22" /><g
             id="g34"><g
               style="opacity:0.69999701"
               id="g32"
               clip-path="url(#clipPath26)"><g
                 id="g30"
                 transform="translate(490.2959,14.1807)"><path
                   id="path28"
                   style="fill:#ffffff;fill-opacity:1;fill-rule:nonzero;stroke:none"
                   d="M 0,0 H 1.136 L 0,-12.944 h -28.902 v 1.186 c 2.866,0.05 3.853,0.987 3.853,2.915 v 26.381 c 0,1.978 -1.136,2.865 -3.853,2.915 V 21.64 H 0 L 1.136,10.673 H 0 l -6.521,8.497 h -8.646 V 6.324 h 0.987 c 3.261,0 6.967,1.976 8.054,4.94 h 0.593 V -0.791 h -0.593 c -1.136,3.063 -4.892,4.942 -8.054,4.942 h -0.987 v -14.626 h 8.646 z m -49.745,-0.05 -1.136,-12.894 h -30.385 v 1.186 c 2.717,0.05 3.855,0.937 3.855,2.915 v 26.381 c 0,1.929 -0.989,2.865 -3.855,2.915 v 1.187 h 17.589 v -1.187 c -2.717,-0.05 -3.854,-0.937 -3.854,-2.915 v -28.013 h 10.129 l 6.521,10.425 z m -51.375,0 -1.136,-12.894 h -30.385 v 1.186 c 2.717,0.05 3.854,0.937 3.854,2.915 v 26.381 c 0,1.929 -0.989,2.865 -3.854,2.915 v 1.187 h 17.589 v -1.187 c -2.718,-0.05 -3.855,-0.937 -3.855,-2.915 v -28.013 h 10.129 l 6.522,10.425 z m -71.382,-11.708 c 2.865,0.05 3.854,0.987 3.854,2.915 v 26.381 c 0,1.978 -1.136,2.865 -3.854,2.915 v 1.187 h 17.588 v -1.187 c -2.914,-0.05 -3.853,-0.937 -3.853,-2.915 V -8.843 c 0,-1.978 1.137,-2.865 3.853,-2.915 v -1.186 h -17.588 z m -56.664,32.211 v 1.187 h 18.428 v -1.187 c -2.519,-0.099 -3.31,-2.174 -2.568,-4.05 l 7.016,-17.886 6.57,17.886 c 0.791,2.223 -0.493,3.755 -3.212,4.05 v 1.187 h 11.117 v -1.187 c -2.667,-0.789 -4.694,-2.718 -5.632,-5.335 l -10.424,-28.805 h -3.953 l -11.759,29.002 c -1.136,2.817 -3.113,4.646 -5.583,5.138 m -19.11,-23.021 c 0,-5.781 -5.039,-11.119 -12.944,-11.119 -4.447,0 -7.955,2.47 -13.044,0.496 l -0.099,13.29 h 2.175 c 0.987,-5.335 5.532,-11.266 11.264,-11.316 4.644,-0.049 5.484,2.77 5.484,4.696 0,1.875 -0.297,3.162 -3.756,5.186 -1.531,0.89 -6.619,3.855 -8.497,4.893 -5.089,2.815 -6.62,5.384 -6.62,9.189 0,4.988 4.99,9.634 12.153,9.634 4.447,0 6.473,-1.978 11.561,0 l 0.099,-10.82 h -2.174 c -0.493,3.853 -2.123,8.35 -8.843,8.35 -3.212,0 -5.237,-1.532 -5.237,-3.706 0,-1.384 0.197,-2.865 3.31,-4.546 1.482,-0.791 5.287,-2.816 7.263,-3.805 5.484,-2.766 7.905,-5.681 7.905,-10.422 m -44.413,-9.19 v -1.186 h -19.22 v 1.186 c 2.027,-0.098 2.618,1.778 1.483,3.902 l -6.077,11.265 -3.904,-4.447 v -7.805 c 0,-1.978 1.137,-2.865 3.854,-2.915 v -1.186 h -17.588 v 1.186 c 2.865,0.05 3.854,0.987 3.854,2.915 v 26.381 c 0,1.978 -1.137,2.865 -3.854,2.915 v 1.187 h 17.588 v -1.187 c -2.865,-0.05 -3.854,-0.986 -3.854,-2.915 V 3.212 l 11.067,12.697 c 2.026,2.321 0.149,4.544 -1.68,4.544 v 1.187 h 13.242 v -1.187 c -2.618,-0.442 -6.275,-2.718 -7.856,-4.544 l -3.805,-4.398 10.968,-20.157 c 1.088,-2.027 3.063,-3.112 5.782,-3.112 m -83.145,30.928 h -0.346 V 6.077 h 0.346 c 4.792,0 7.756,2.42 7.756,6.917 0,4.494 -2.964,6.176 -7.756,6.176 m 1.977,2.47 c 8.151,0 16.304,-2.52 16.304,-8.646 0,-5.189 -6.177,-7.412 -12.747,-7.807 5.681,0 9.387,-1.432 10.82,-7.016 1.383,-5.435 2.618,-9.929 5.681,-9.929 v -1.186 c -0.84,-0.446 -2.964,-1.237 -5.929,-1.237 -2.865,0 -6.62,0.99 -7.806,5.239 -0.494,1.778 -0.84,3.31 -1.828,7.113 -1.284,4.991 -3.904,5.931 -5.978,5.931 h -0.84 V -8.843 c 0,-1.978 1.137,-2.865 3.854,-2.915 v -1.186 h -17.589 v 1.186 c 2.866,0.05 3.854,0.987 3.854,2.915 v 26.381 c 0,1.978 -1.137,2.865 -3.854,2.915 v 1.187 z m -55.426,-33.398 c 2.866,0.05 3.855,0.987 3.855,2.915 v 26.381 c 0,1.978 -1.136,2.865 -3.855,2.915 v 1.187 h 17.589 v -1.187 c -2.914,-0.05 -3.853,-0.937 -3.853,-2.915 V -8.843 c 0,-1.978 1.136,-2.865 3.853,-2.915 v -1.186 h -17.589 z m -19.561,0 v -1.186 h -19.219 v 1.186 c 2.026,-0.098 2.618,1.778 1.482,3.902 l -6.077,11.265 -3.904,-4.447 v -7.805 c 0,-1.978 1.138,-2.865 3.855,-2.915 v -1.186 h -17.589 v 1.186 c 2.865,0.05 3.854,0.987 3.854,2.915 v 26.381 c 0,1.978 -1.137,2.865 -3.854,2.915 v 1.187 h 17.589 v -1.187 c -2.865,-0.05 -3.855,-0.986 -3.855,-2.915 V 3.212 l 11.067,12.697 c 2.027,2.321 0.149,4.544 -1.679,4.544 v 1.187 h 13.241 v -1.187 c -2.618,-0.442 -6.275,-2.718 -7.856,-4.544 l -3.804,-4.398 10.968,-20.157 c 1.087,-2.027 3.064,-3.112 5.781,-3.112" /></g></g></g></g><g
           transform="translate(488.3662,59.9707)"
           id="g36"><path
             id="path38"
             style="fill:#ffffff;fill-opacity:1;fill-rule:nonzero;stroke:none"
             d="m 0,0 c -1.14,-1.666 -2.191,-2.979 -5.258,-2.979 -3.24,0 -6.132,3.153 -6.132,12.79 V 28.559 H 0.7 v 4.818 h -12.09 v 14.366 h -9.899 c 0,-6.219 -4.817,-14.366 -16.206,-14.366 v -4.818 h 8.935 V 8.847 c 0,-13.14 9.549,-17.958 18.661,-17.958 6.833,0 10.599,3.242 12.964,7.884 z m -55.81,31.448 c -3.241,0 -4.993,-6.045 -4.642,-12.789 h 9.898 c 0.176,6.657 -0.437,12.789 -5.256,12.789 m 20.325,-16.031 h -24.618 c 1.139,-7.532 4.907,-14.805 12.003,-14.805 4.906,0 8.322,3.329 9.899,7.273 l 2.453,-0.702 c -1.139,-6.045 -6.133,-15.856 -19.36,-15.769 -10.425,0.087 -22.252,7.359 -22.252,21.376 0,13.139 8.147,21.462 20.85,21.462 12.701,0 20.674,-8.323 21.025,-18.835 m -64.832,16.031 c -3.241,0 -4.993,-6.045 -4.642,-12.789 h 9.898 c 0.176,6.657 -0.437,12.789 -5.256,12.789 m 20.325,-16.031 h -24.618 c 1.139,-7.532 4.907,-14.805 12.003,-14.805 4.905,0 8.322,3.329 9.898,7.273 l 2.454,-0.702 c -1.139,-6.045 -6.133,-15.856 -19.36,-15.769 -10.426,0.087 -22.252,7.359 -22.252,21.376 0,13.139 8.147,21.462 20.85,21.462 12.702,0 20.674,-8.323 21.025,-18.835 m -46.612,16.644 c -5.256,3.68 -13.053,1.14 -16.645,-6.658 v 7.974 l -22.602,-3.505 v -2.101 c 4.381,0 6.308,-0.702 6.308,-4.207 V -0.614 c 0,-3.329 -1.664,-4.992 -6.308,-5.082 v -2.102 h 28.909 v 2.102 c -4.379,0 -6.307,1.577 -6.307,5.082 v 20.849 c 0,9.286 12.527,6.482 8.936,-2.014 9.286,-3.768 16.206,7.883 7.709,13.84 M -167.52,0 c -1.139,-1.666 -2.191,-2.979 -5.257,-2.979 -3.241,0 -6.132,3.153 -6.132,12.79 v 18.748 h 12.089 v 4.818 h -12.089 v 14.366 h -9.899 c 0,-6.219 -4.818,-14.366 -16.207,-14.366 v -4.818 h 8.935 V 8.847 c 0,-13.14 9.549,-17.958 18.66,-17.958 6.833,0 10.6,3.242 12.966,7.884 z m -49.503,29.084 c -3.503,1.752 -10.249,5.344 -12.877,6.744 -5.519,2.98 -5.87,5.607 -5.87,8.061 0,3.854 3.592,6.571 9.287,6.571 11.914,0 14.804,-7.974 15.68,-14.808 h 3.855 l -0.175,19.187 c -9.023,-3.504 -12.615,0 -20.5,0 -12.702,0 -21.55,-8.236 -21.55,-17.082 0,-6.747 2.715,-11.303 11.739,-16.295 3.329,-1.839 12.352,-7.096 15.067,-8.672 6.134,-3.592 6.659,-5.87 6.659,-9.198 0,-3.418 -1.489,-8.41 -9.725,-8.323 -10.161,0.086 -18.221,10.6 -19.972,20.061 h -3.856 l 0.176,-23.566 c 9.023,3.505 15.242,-0.875 23.127,-0.875 14.017,0 22.952,9.461 22.952,19.71 0,8.41 -4.292,13.578 -14.017,18.485 m -54.675,-29.698 v 20.411 c 0,7.884 -3.856,14.893 -17.784,14.893 -6.22,0 -10.863,-3.065 -13.403,-6.307 v 4.994 l -22.602,-3.505 v -2.101 c 4.381,0 6.307,-1.58 6.307,-5.082 V -0.614 c 0,-3.329 -1.664,-4.992 -6.307,-5.082 v -2.102 h 28.383 v 2.102 c -3.942,0.09 -5.781,1.84 -5.781,4.995 v 18.745 c 0,5.607 3.329,10.515 7.708,10.515 4.293,0 7.185,-3.243 7.185,-10.515 V -0.701 c 0,-3.067 -1.665,-4.819 -5.783,-4.995 v -2.102 h 28.384 v 2.102 c -4.38,0 -6.307,1.577 -6.307,5.082 m -60.101,0 V 33.377 L -354.4,29.872 v -2.101 c 4.379,0 6.306,-1.58 6.306,-5.082 V -0.614 c 0,-3.329 -1.664,-4.992 -6.306,-5.082 v -2.102 h 28.909 v 2.102 c -4.381,0 -6.308,1.577 -6.308,5.082 m -8.235,36.093 c 5.257,0 8.235,4.117 8.235,7.971 0,3.855 -2.978,7.971 -8.235,7.971 -5.256,0 -8.235,-4.116 -8.235,-7.971 0,-3.854 2.979,-7.971 8.235,-7.971 m -33.471,-22.34 c -5.694,0 -11.037,-2.278 -11.037,-9.81 0,-3.418 2.015,-5.783 4.993,-5.783 3.767,0 5.606,2.979 6.044,6.308 z m 18.748,-18.835 v -2.102 c -1.315,-0.349 -3.505,-1.051 -8.235,-1.051 -5.17,0 -9.286,3.067 -10.513,5.607 -2.716,-3.328 -6.57,-5.607 -11.651,-5.607 -9.812,0 -15.681,4.204 -15.681,11.126 0,9.461 15.243,13.578 27.332,13.578 v 5.255 c 0,7.36 -2.277,9.201 -6.57,9.201 -4.03,0 -6.045,-1.752 -6.045,-3.944 0,-1.752 1.315,-4.03 3.505,-4.466 0,-2.191 -2.366,-6.221 -7.973,-6.221 -4.468,0 -7.446,3.153 -7.446,8.06 0,6.571 9.374,10.512 17.083,10.512 12.878,0 21.989,-4.293 21.989,-15.769 V 2.277 c 0,-3.504 0,-7.184 4.205,-7.973 m -74.565,59.221 h 25.58 v -2.104 c -5.081,-0.086 -6.833,-1.75 -6.833,-5.168 V -0.525 c 0,-3.505 2.015,-5.081 6.833,-5.171 v -2.102 h -31.187 v 2.102 c 5.081,0.09 6.834,1.753 6.834,5.171 v 43.799 l -20.85,-52.385 h -4.38 l -22.689,53.525 v -44.59 c 0,-3.418 1.839,-4.731 7.358,-5.52 v -2.102 h -19.71 v 2.102 c 5.693,0.789 7.446,2.191 7.446,5.607 V 45.99 c 0,3.592 -1.928,4.995 -7.446,5.431 v 2.104 h 29.259 l 15.418,-36.006 z" /></g><g
           transform="translate(219.7153,185.1338)"
           id="g40"><path
             id="path42"
             style="fill:#ffffff;fill-opacity:1;fill-rule:nonzero;stroke:none"
             d="M 0,0 V 5.277 H -9.282 V -9.281 H 27.209 V 0 Z m 24.792,52.002 v 9.281 H 61.283 V 46.724 h -9.282 v 5.278 z M 61.283,26.16 H 52.001 V 0 H 48.094 V -9.281 H 61.283 Z M -9.282,61.283 H 3.908 V 52.002 H 0 V 25.84 h -9.282 z" /></g><g
           id="g44"><g
             id="g46" /><g
             id="g58"><g
               style="opacity:0.69999701"
               id="g56"
               clip-path="url(#clipPath50)"><g
                 id="g54"
                 transform="translate(286.4238,196.082)"><path
                   id="path52"
                   style="fill:#ffffff;fill-opacity:1;fill-rule:nonzero;stroke:none"
                   d="M 0,0 H 26.96 V -52.45 H -24.565 V 0 h 3.872 V 9.362 H -33.762 V -61.813 H 36.157 V 9.362 L 0,9.362 Z m -81.416,30.104 h -26.96 v 52.452 h 51.525 V 30.104 h -3.872 v -9.363 h 13.069 v 71.177 h -69.919 V 20.741 h 36.157 z m 24.565,-82.554 h -51.525 V 0 h 51.525 v -5.322 h 9.197 V 9.362 h -69.919 v -71.175 h 69.919 v 35.426 h -9.197 z M -33.762,91.918 V 56.492 h 9.197 V 82.556 H 26.96 V 30.104 h -51.525 v 5.324 h -9.197 V 20.741 h 69.919 v 71.177 z" /></g></g></g></g></g></g></g></svg>